<?xml version="1.0"?>
<svg xmlns="http://www.w3.org/2000/svg" width="512" height="512" viewBox="0 0 128 128"><g><path d="M121.406,112.521a6.239,6.239,0,0,0-4.436-1.841h-6.75a.781.781,0,0,1-.78-.78.747.747,0,0,1,.227-.543.77.77,0,0,1,.553-.227h3.09a4.945,4.945,0,0,0,4.94-4.94,4.961,4.961,0,0,0-4.94-4.94H104.5a.671.671,0,0,1-.67-.67,4.174,4.174,0,0,0-4.16-4.16H83.37V88.631a4.357,4.357,0,0,0,.723-.095c.856.073,1.719.118,2.593.118A30.551,30.551,0,0,0,117.2,58.137C117.2,35.63,89.135,6.509,87.94,5.28a1.75,1.75,0,0,0-2.509,0c-.294.3-2.221,2.3-4.953,5.47H36.38V8.25h.245a1.75,1.75,0,0,0,0-3.5h-16a1.75,1.75,0,0,0,0,3.5h.255v2.5H9.5a4.741,4.741,0,0,0-.25,9.475V45.374a4.731,4.731,0,0,0,0,9.45V79.175a4.7,4.7,0,0,0-3.107,1.368A4.734,4.734,0,0,0,9.25,88.625v25.15a4.741,4.741,0,0,0,.25,9.475H116.97a6.283,6.283,0,0,0,4.436-10.729ZM12.75,113.75V88.65H79.87v25.1ZM86.686,9.06c5.48,5.963,27.016,30.581,27.016,49.077A27.047,27.047,0,0,1,86.686,85.154c-.858,0-1.705-.044-2.542-.123l-.062-.005A27.052,27.052,0,0,1,59.668,58.137C59.668,39.641,81.205,15.023,86.686,9.06ZM56.375,54.85a29.629,29.629,0,0,0-.207,3.287A30.4,30.4,0,0,0,64.587,79.15H12.75V54.85Zm16.488-34.6C67.52,27.44,61.816,36.415,58.65,45.35H12.75V20.25ZM24.38,8.25h8.5v2.5h-8.5ZM8.25,15.5A1.253,1.253,0,0,1,9.5,14.25H77.543c-.65.8-1.317,1.625-2.005,2.5H9.5A1.252,1.252,0,0,1,8.25,15.5Zm0,34.6A1.255,1.255,0,0,1,9.5,48.85H57.55c-.23.836-.439,1.67-.615,2.5H9.5A1.252,1.252,0,0,1,8.25,50.1Zm0,33.8a1.258,1.258,0,0,1,.367-.882A1.243,1.243,0,0,1,9.5,82.65H68.532a30.444,30.444,0,0,0,3.98,2.5H9.5A1.251,1.251,0,0,1,8.25,83.9Zm63.63,35.85H9.5a1.25,1.25,0,0,1,0-2.5H83.115a1.25,1.25,0,1,1,0,2.5Zm45.09,0H87.677a4.665,4.665,0,0,0-4.307-5.974V97.92h16.3a.636.636,0,0,1,.476.211.624.624,0,0,1,.184.449,4.175,4.175,0,0,0,4.17,4.17h8.81a1.412,1.412,0,0,1,1.024.439,1.39,1.39,0,0,1,.416,1,1.442,1.442,0,0,1-1.44,1.44h-3.09a4.275,4.275,0,1,0,0,8.55h6.75a2.785,2.785,0,0,1,0,5.57Z"/><path d="M101.935,76.779a1.74,1.74,0,0,0,1.171-.451,24.56,24.56,0,0,0,4.814-5.947,1.75,1.75,0,1,0-3.029-1.752,21.14,21.14,0,0,1-4.13,5.1,1.75,1.75,0,0,0,1.174,3.049Z"/></g></svg>
