<svg id="Capa_1" enable-background="new 0 0 512 512" height="512" viewBox="0 0 512 512" width="512" xmlns="http://www.w3.org/2000/svg"><g><path d="m478.78 504.501h-158.34l8.42-85.069.01-.09 8.42-85.08.01-.09 8.42-85.071.01-.089 8.42-85.07h90.92l8.42 85.07.01.089 8.42 85.071.01.09 8.42 85.08.01.09z" fill="#e7ecf6"/><path d="m470.36 419.432-.01-.09-8.42-85.08-.01-.09-8.42-85.071-.01-.089-8.42-85.07h-20.428l8.42 85.07.01.089 8.42 85.071.01.09 8.42 85.08.01.09 8.42 85.069h20.428z" fill="#d8e2f1"/><g><path d="m312.67 293.604h-216.923v-116.247c0-7.411 6.007-13.418 13.418-13.418h190.087c7.411 0 13.418 6.007 13.418 13.418z" fill="#b3e59f"/><path d="m299.252 163.939h-19.196c7.411 0 13.418 6.007 13.418 13.418v116.247h19.196v-116.247c0-7.41-6.008-13.418-13.418-13.418z" fill="#95d6a4"/></g><g><path d="m175.835 220.824c5.292-5.292 5.292-13.873 0-19.165s-13.873-5.292-19.165 0l-12.53 12.53 19.165 19.165z" fill="#df6b57"/><path d="m144.14 214.189-12.531 12.531c-5.292 5.292-5.292 13.872 0 19.165 5.292 5.292 13.873 5.292 19.165 0l12.531-12.531z" fill="#61a2f9"/></g><path d="m456.098 163.939h-112.977c-2.585 0-4.68-2.095-4.68-4.68v-15.584c0-2.585 2.095-4.68 4.68-4.68h112.977c2.585 0 4.68 2.095 4.68 4.68v15.584c0 2.585-2.095 4.68-4.68 4.68z" fill="#365e7d"/><path d="m456.098 138.995h-17.001c2.585 0 4.68 2.096 4.68 4.68v15.584c0 2.585-2.095 4.68-4.68 4.68h17.001c2.585 0 4.68-2.095 4.68-4.68v-15.584c0-2.585-2.095-4.68-4.68-4.68z" fill="#2b4d66"/><path d="m453.49 249.012h-107.76l8.42-85.07h90.92z" fill="#b3e59f"/><path d="m453.49 249.012-8.42-85.07h-20.428l8.42 85.07z" fill="#95d6a4"/><path d="m470.35 419.342h-141.48l8.42-85.08h124.64z" fill="#b3e59f"/><path d="m470.35 419.342-8.42-85.08h-20.428l8.42 85.08z" fill="#95d6a4"/><path d="m33.038 309.493h342.34v195.007h-342.34z" fill="#9dc6fb"/><path d="m33.038 309.493v16.049h311.729c6.305 0 11.415 5.111 11.415 11.415v167.543h19.196v-195.007z" fill="#80b4fb"/><path d="m395.378 283.604h-382.339c-3.059 0-5.538 2.48-5.538 5.538v14.811c0 3.059 2.48 5.539 5.538 5.539h382.339c3.059 0 5.538-2.48 5.538-5.539v-14.811c0-3.058-2.479-5.538-5.538-5.538z" fill="#d3effb"/><path d="m395.378 283.604h-19.196c3.059 0 5.539 2.479 5.539 5.539v14.811c0 3.059-2.48 5.539-5.539 5.539h19.196c3.059 0 5.538-2.479 5.538-5.539v-14.811c0-3.059-2.479-5.539-5.538-5.539z" fill="#b1e4f9"/><path d="m280.238 504.5h-152.059v-68.654c0-3.237 2.624-5.862 5.862-5.862h140.336c3.237 0 5.862 2.624 5.862 5.862v68.654z" fill="#e7ecf6"/><path d="m274.376 429.984h-19.196c3.237 0 5.862 2.625 5.862 5.862v68.654h19.196v-68.654c0-3.237-2.624-5.862-5.862-5.862z" fill="#d8e2f1"/><g><g><path d="m100.276 395.742h-30.933c-2.837 0-5.137-2.3-5.137-5.137v-42.54c0-2.837 2.3-5.137 5.137-5.137h30.933c2.837 0 5.137 2.3 5.137 5.137v42.54c0 2.837-2.3 5.137-5.137 5.137z" fill="#e7ecf6"/><path d="m100.276 342.928h-14.163c2.837 0 5.137 2.3 5.137 5.137v42.54c0 2.837-2.3 5.137-5.137 5.137h14.163c2.837 0 5.137-2.3 5.137-5.137v-42.54c0-2.838-2.3-5.137-5.137-5.137z" fill="#d8e2f1"/></g><g><path d="m179.875 395.742h-30.933c-2.837 0-5.137-2.3-5.137-5.137v-42.54c0-2.837 2.3-5.137 5.137-5.137h30.933c2.837 0 5.137 2.3 5.137 5.137v42.54c0 2.837-2.3 5.137-5.137 5.137z" fill="#e7ecf6"/><path d="m179.875 342.928h-14.163c2.837 0 5.137 2.3 5.137 5.137v42.54c0 2.837-2.3 5.137-5.137 5.137h14.163c2.837 0 5.137-2.3 5.137-5.137v-42.54c0-2.838-2.3-5.137-5.137-5.137z" fill="#d8e2f1"/></g><g><path d="m259.474 395.742h-30.933c-2.837 0-5.137-2.3-5.137-5.137v-42.54c0-2.837 2.3-5.137 5.137-5.137h30.933c2.837 0 5.137 2.3 5.137 5.137v42.54c0 2.837-2.3 5.137-5.137 5.137z" fill="#e7ecf6"/><path d="m259.474 342.928h-14.163c2.837 0 5.137 2.3 5.137 5.137v42.54c0 2.837-2.3 5.137-5.137 5.137h14.163c2.837 0 5.137-2.3 5.137-5.137v-42.54c0-2.838-2.3-5.137-5.137-5.137z" fill="#d8e2f1"/></g><g><path d="m339.073 395.742h-30.933c-2.837 0-5.137-2.3-5.137-5.137v-42.54c0-2.837 2.3-5.137 5.137-5.137h30.933c2.837 0 5.137 2.3 5.137 5.137v42.54c0 2.837-2.3 5.137-5.137 5.137z" fill="#e7ecf6"/><path d="m339.073 342.928h-14.163c2.837 0 5.137 2.3 5.137 5.137v42.54c0 2.837-2.3 5.137-5.137 5.137h14.163c2.837 0 5.137-2.3 5.137-5.137v-42.54c0-2.838-2.3-5.137-5.137-5.137z" fill="#d8e2f1"/></g></g><g><path d="m120.14 236.303c0 5.623 2.19 10.909 6.166 14.886 4.104 4.104 9.494 6.155 14.886 6.155 5.39 0 10.782-2.052 14.885-6.155 1.191-1.191-1.781 1.781 25.061-25.061 0-.001 0-.001 0-.001 8.207-8.208 8.207-21.563 0-29.771-8.208-8.207-21.564-8.205-29.771 0-1.191 1.191 1.781-1.781-25.061 25.061-3.976 3.976-6.166 9.262-6.166 14.886zm50.392-29.34c2.359 2.359 2.359 6.198 0 8.559l-7.226 7.227-8.559-8.559 7.227-7.227c2.359-2.359 6.199-2.359 8.558 0zm-33.62 25.06 7.227-7.228 8.558 8.559-7.227 7.227c-2.36 2.36-6.199 2.358-8.558 0-2.364-2.364-2.365-6.193 0-8.558z"/><path d="m214.059 212.807h71.464c4.143 0 7.5-3.357 7.5-7.5s-3.357-7.5-7.5-7.5h-71.464c-4.142 0-7.5 3.357-7.5 7.5s3.358 7.5 7.5 7.5z"/><path d="m214.059 249.737h71.464c4.143 0 7.5-3.357 7.5-7.5s-3.357-7.5-7.5-7.5h-71.464c-4.142 0-7.5 3.357-7.5 7.5s3.358 7.5 7.5 7.5z"/><path d="m504.5 497h-18.925l-2.061-20.824c-.409-4.122-4.079-7.124-8.202-6.726-4.122.408-7.133 4.081-6.726 8.202l1.915 19.348h-87.622v-70.158h80.678l2.061 20.824c.384 3.87 3.646 6.762 7.455 6.762.247 0 .496-.013.748-.037 4.121-.408 7.132-4.081 6.725-8.203-.506-5.11-26.847-271.217-27.196-274.748h2.749c6.716 0 12.18-5.464 12.18-12.181v-15.584c0-6.716-5.464-12.18-12.18-12.18h-112.978c-6.716 0-12.18 5.464-12.18 12.18v15.584c0 6.717 5.464 12.181 12.18 12.181h2.75l-7.604 76.832c-.004.039-.008.079-.01.092l-2.746 27.741h-15.341v-98.747c0-11.534-9.384-20.918-20.918-20.918h-141.625c-4.142 0-7.5 3.357-7.5 7.5s3.358 7.5 7.5 7.5h141.625c3.263 0 5.918 2.654 5.918 5.918v98.747h-201.923v-98.747c0-3.264 2.655-5.918 5.918-5.918h18.476c4.142 0 7.5-3.357 7.5-7.5s-3.358-7.5-7.5-7.5h-18.476c-11.534 0-20.918 9.384-20.918 20.918v98.747h-75.208c-7.19-.001-13.039 5.848-13.039 13.038v14.812c0 7.189 5.849 13.038 13.039 13.038h12.499v75.011c0 4.143 3.358 7.5 7.5 7.5s7.5-3.357 7.5-7.5v-75.011h327.341v180.007h-80.141v-61.154c0-7.367-5.994-13.361-13.362-13.361h-140.336c-7.368 0-13.362 5.994-13.362 13.361v61.154h-80.14v-75.011c0-4.143-3.358-7.5-7.5-7.5s-7.5 3.357-7.5 7.5v75.011h-18.038c-4.142 0-7.5 3.357-7.5 7.5s3.358 7.5 7.5 7.5h497c4.143 0 7.5-3.357 7.5-7.5s-3.358-7.5-7.5-7.5zm-121.621-85.158v-70.08h72.257l6.936 70.08zm62.332-170.33h-91.201l6.935-70.07h77.332zm-99.27-95.017h107.337v9.944h-107.337zm-330.941 155.497v-10.888h378.417v10.888c-21.242 0-356.7 0-378.417 0zm380.378 15c7.189 0 13.039-5.849 13.039-13.038v-14.812c0-7.189-5.85-13.038-13.039-13.038h-44.793l1.939-19.593h94.173l6.953 70.25h-70.771v-9.77h12.499zm-259.7 120.492h61.03v59.516h-61.03zm76.03 59.516v-59.516h61.03v59.516z"/><path d="m100.276 403.242c6.968 0 12.637-5.669 12.637-12.638v-42.54c0-6.968-5.669-12.637-12.637-12.637h-30.932c-6.968 0-12.637 5.669-12.637 12.637v42.54c0 6.969 5.669 12.638 12.637 12.638zm-28.57-52.814h26.207v37.814h-26.207z"/><path d="m179.875 403.242c6.968 0 12.637-5.669 12.637-12.638v-42.54c0-6.968-5.669-12.637-12.637-12.637h-30.933c-6.968 0-12.637 5.669-12.637 12.637v42.54c0 6.969 5.669 12.638 12.637 12.638zm-28.57-52.814h26.207v37.814h-26.207z"/><path d="m259.474 403.242c6.968 0 12.637-5.669 12.637-12.638v-42.54c0-6.968-5.669-12.637-12.637-12.637h-30.933c-6.968 0-12.637 5.669-12.637 12.637v42.54c0 6.969 5.669 12.638 12.637 12.638zm-28.569-52.814h26.207v37.814h-26.207z"/><path d="m339.073 403.242c6.969 0 12.638-5.669 12.638-12.638v-42.54c0-6.968-5.669-12.637-12.638-12.637h-30.933c-6.968 0-12.637 5.669-12.637 12.637v42.54c0 6.969 5.669 12.638 12.637 12.638zm-28.569-52.814h26.207v37.814h-26.207z"/><path d="m366.38 82.975c8.089 0 14.67 6.58 14.67 14.669v17.111c0 4.143 3.357 7.5 7.5 7.5s7.5-3.357 7.5-7.5v-17.111c0-16.359-13.31-29.669-29.67-29.669-8.089 0-14.669-6.581-14.669-14.67v-45.805c0-4.143-3.357-7.5-7.5-7.5s-7.5 3.357-7.5 7.5v45.805c0 16.36 13.309 29.67 29.669 29.67z"/><path d="m410.778 103.509v11.246c0 4.143 3.357 7.5 7.5 7.5s7.5-3.357 7.5-7.5v-11.246c0-4.126 3.357-7.482 7.483-7.482h12.534c12.396 0 22.482-10.086 22.482-22.483v-38.545c0-4.143-3.357-7.5-7.5-7.5s-7.5 3.357-7.5 7.5v38.544c0 4.126-3.356 7.483-7.482 7.483h-12.534c-12.397 0-22.483 10.086-22.483 22.483z"/><path d="m415.351 73.444c4.143 0 7.5-3.357 7.5-7.5v-58.444c0-4.143-3.357-7.5-7.5-7.5s-7.5 3.357-7.5 7.5v58.444c0 4.143 3.358 7.5 7.5 7.5z"/><path d="m376.182 55.462c4.143 0 7.5-3.357 7.5-7.5v-17.564c0-4.143-3.357-7.5-7.5-7.5s-7.5 3.357-7.5 7.5v17.563c0 4.143 3.358 7.501 7.5 7.501z"/></g></g></svg>